<svg id="svg" version="1.1" width="564" height="564" viewBox="0 0 564 564" xmlns="http://www.w3.org/2000/svg"><path d="M0.000 282.000 L 0.000 564.000 282.000 564.000 L 564.000 564.000 564.000 282.000 L 564.000 0.000 282.000 0.000 L 0.000 0.000 0.000 282.000 M265.537 89.500 C 270.115 93.075,274.164 96.000,274.534 96.000 C 274.904 96.000,278.714 93.075,283.000 89.500 C 287.286 85.925,291.177 83.000,291.647 83.000 C 292.116 82.999,295.875 86.617,300.000 91.039 L 307.500 99.078 316.976 93.568 L 326.451 88.058 331.476 95.991 C 334.239 100.354,336.956 104.660,337.513 105.559 C 338.425 107.033,339.551 106.837,348.911 103.579 C 354.624 101.591,359.416 100.085,359.560 100.232 C 359.705 100.379,361.614 105.000,363.803 110.500 C 365.992 116.000,368.169 120.492,368.641 120.481 C 369.114 120.471,373.934 119.845,379.353 119.089 C 386.966 118.028,389.374 117.987,389.946 118.912 C 390.352 119.570,391.504 124.570,392.504 130.023 L 394.323 139.938 405.412 140.219 L 416.500 140.500 416.784 151.233 C 417.115 163.780,416.340 162.928,429.750 165.484 C 434.837 166.454,438.996 167.530,438.991 167.874 C 438.986 168.218,438.158 173.317,437.150 179.204 L 435.317 189.907 445.659 194.064 C 451.346 196.350,456.000 198.373,456.000 198.560 C 456.000 198.748,454.425 203.252,452.500 208.570 C 450.575 213.888,449.000 218.595,449.000 219.030 C 449.000 219.465,453.050 222.377,458.000 225.500 C 462.950 228.623,467.000 231.495,467.000 231.881 C 467.000 232.268,464.746 236.515,461.990 241.321 C 459.235 246.126,456.876 250.382,456.748 250.779 C 456.621 251.175,459.887 254.641,464.008 258.479 C 468.129 262.317,471.651 265.809,471.837 266.239 C 472.022 266.668,469.097 270.677,465.337 275.148 C 461.576 279.618,458.596 283.614,458.713 284.028 C 458.830 284.441,461.643 288.384,464.963 292.791 C 468.283 297.197,470.982 301.184,470.961 301.651 C 470.928 302.349,465.716 306.700,455.396 314.643 C 454.125 315.621,454.646 317.160,459.031 325.366 C 461.847 330.636,463.882 335.382,463.554 335.913 C 463.226 336.444,458.917 339.037,453.979 341.676 C 449.040 344.315,445.003 346.929,445.008 347.487 C 445.012 348.044,445.898 351.402,446.976 354.948 C 448.054 358.495,448.805 361.528,448.644 361.690 C 448.483 361.851,444.708 359.922,440.256 357.404 L 432.162 352.826 435.069 346.347 C 439.616 336.213,443.703 323.175,446.205 310.828 C 448.195 301.006,448.500 296.508,448.500 277.000 C 448.499 257.350,448.207 253.107,446.193 243.500 C 436.747 198.452,410.097 158.683,373.000 134.275 C 351.187 119.924,326.407 110.503,301.000 106.904 C 286.367 104.831,261.313 105.265,247.659 107.827 C 184.871 119.610,134.665 163.114,114.668 223.065 C 109.406 238.839,106.903 253.137,106.276 271.005 C 105.389 296.282,108.559 315.393,117.564 339.062 C 120.097 345.718,122.018 351.273,121.834 351.407 C 121.651 351.540,118.856 353.114,115.624 354.904 L 109.747 358.160 110.396 354.703 L 111.044 351.246 102.772 346.873 C 98.223 344.468,93.938 342.355,93.250 342.177 C 91.287 341.669,91.718 339.879,96.000 330.741 C 98.200 326.046,100.000 321.715,100.000 321.115 C 100.000 320.515,96.513 317.272,92.250 313.909 C 87.988 310.545,84.153 307.471,83.729 307.076 C 83.008 306.404,84.112 304.643,92.617 292.902 L 95.947 288.304 88.420 279.977 L 80.892 271.650 88.921 263.575 L 96.950 255.500 91.057 246.331 C 84.279 235.784,83.788 237.429,96.181 229.158 L 103.862 224.032 99.895 213.852 C 97.713 208.254,96.281 203.342,96.714 202.938 C 97.146 202.534,101.489 200.485,106.365 198.384 C 111.240 196.284,115.416 194.080,115.643 193.488 C 115.870 192.896,115.190 187.931,114.131 182.455 C 113.071 176.980,112.339 172.357,112.504 172.182 C 112.668 172.007,117.459 170.653,123.151 169.173 L 133.500 166.482 133.216 158.491 C 133.060 154.096,133.182 149.095,133.488 147.377 L 134.043 144.255 144.992 143.545 L 155.940 142.835 156.515 139.668 C 156.831 137.925,157.654 133.125,158.344 129.000 L 159.599 121.500 166.550 121.945 C 170.372 122.190,175.477 122.415,177.894 122.445 L 182.288 122.500 185.780 112.750 C 187.788 107.145,189.830 103.000,190.585 103.000 C 191.694 103.000,205.707 107.183,209.589 108.673 C 210.323 108.954,213.133 105.272,216.534 99.573 C 219.676 94.308,222.473 90.000,222.749 90.000 C 223.026 90.000,227.533 92.314,232.764 95.143 C 242.222 100.256,242.285 100.274,243.888 98.221 C 247.425 93.692,256.522 83.023,256.856 83.012 C 257.052 83.005,260.958 85.925,265.537 89.500 M291.000 112.060 C 314.251 114.190,329.101 118.231,349.777 128.055 C 376.321 140.668,400.787 162.136,416.950 187.000 C 428.224 204.342,437.715 228.821,441.570 250.500 C 443.997 264.149,443.997 289.851,441.570 303.500 C 438.899 318.521,430.136 346.061,426.969 349.388 C 426.483 349.899,420.890 348.536,413.793 346.176 C 383.696 336.167,345.741 330.411,297.000 328.465 C 278.032 327.707,225.559 329.462,206.500 331.492 C 179.638 334.353,150.665 340.132,136.550 345.445 C 132.728 346.884,129.076 347.859,128.435 347.613 C 126.693 346.945,120.199 330.768,117.486 320.338 C 109.124 288.189,110.620 252.180,121.592 221.500 C 125.736 209.911,135.565 191.090,142.742 181.000 C 151.101 169.248,167.565 152.526,179.500 143.665 C 189.705 136.089,213.550 123.706,225.510 119.771 C 239.484 115.173,257.087 112.224,277.000 111.143 C 278.375 111.068,284.675 111.481,291.000 112.060 M285.135 121.750 C 281.645 128.283,275.027 144.627,275.438 145.698 C 276.382 148.159,278.975 146.995,280.459 143.444 C 281.898 140.000,282.094 139.898,286.690 140.194 C 291.081 140.477,291.504 140.741,292.355 143.726 C 293.140 146.476,296.332 149.001,297.520 147.813 C 298.177 147.156,290.614 121.525,289.539 120.765 C 287.798 119.534,286.119 119.909,285.135 121.750 M301.873 134.231 L 299.562 146.227 301.892 148.113 C 303.173 149.151,304.622 150.000,305.111 150.000 C 306.275 150.000,306.259 146.669,305.088 145.450 C 304.536 144.875,304.910 140.747,306.035 135.000 C 308.373 123.054,308.372 123.330,306.092 122.734 C 304.380 122.287,303.947 123.465,301.873 134.231 M312.735 135.254 C 311.214 140.889,309.976 146.422,309.985 147.550 C 310.004 150.102,311.821 152.000,314.245 152.000 C 315.790 152.000,315.990 151.464,315.473 148.709 C 315.084 146.633,315.760 141.857,317.306 135.770 C 319.767 126.077,319.652 124.985,316.168 125.004 C 315.801 125.005,314.256 129.618,312.735 135.254 M289.558 131.539 C 290.763 136.286,290.568 137.009,288.083 136.985 C 284.242 136.948,283.652 135.478,285.518 130.591 C 286.492 128.041,287.546 126.212,287.859 126.526 C 288.173 126.840,288.938 129.096,289.558 131.539 M255.000 128.706 C 254.175 129.008,252.535 130.131,251.355 131.202 C 249.958 132.472,248.979 132.776,248.546 132.075 C 247.424 130.258,242.755 130.882,240.314 133.174 C 239.042 134.370,238.000 134.820,238.000 134.174 C 238.000 132.872,234.398 132.548,233.635 133.781 C 233.199 134.487,235.254 145.935,236.592 150.250 C 236.891 151.213,237.999 152.000,239.055 152.000 C 240.801 152.000,240.953 151.310,240.737 144.385 C 240.537 137.964,240.783 136.592,242.309 135.635 C 244.742 134.108,246.561 136.587,247.474 142.673 C 248.441 149.123,248.813 149.758,251.339 149.275 C 253.498 148.863,253.543 148.632,252.588 142.855 C 251.486 136.197,252.313 133.708,255.797 133.188 C 257.938 132.868,258.572 134.293,260.497 143.750 C 261.105 146.735,263.529 148.138,265.198 146.469 C 265.490 146.177,264.926 142.485,263.945 138.264 C 261.839 129.203,259.749 126.970,255.000 128.706 M326.566 129.688 C 325.925 131.359,327.713 133.216,329.438 132.671 C 331.252 132.098,331.100 130.124,329.161 129.086 C 327.617 128.260,327.065 128.388,326.566 129.688 M224.750 136.759 C 222.528 137.251,222.550 137.652,225.146 143.898 C 227.702 150.047,226.728 154.000,222.658 154.000 C 220.706 154.000,219.779 152.899,217.555 147.942 C 215.586 143.555,214.376 141.981,213.168 142.233 C 210.879 142.712,211.401 146.230,214.766 153.000 C 217.254 158.004,217.828 158.527,221.135 158.804 C 223.999 159.043,225.173 158.596,226.664 156.700 C 227.818 155.233,229.521 154.334,231.028 154.397 C 234.294 154.533,234.051 152.368,229.789 143.339 C 227.295 138.057,226.077 136.466,224.750 136.759 M321.560 144.582 C 319.119 151.769,318.876 153.306,320.065 154.040 C 322.034 155.257,322.474 154.598,325.876 145.353 C 328.913 137.099,328.936 136.000,326.070 136.000 C 324.958 136.000,323.589 138.606,321.560 144.582 M334.000 141.764 C 334.000 143.262,334.870 143.941,337.403 144.416 C 340.673 145.029,342.598 147.224,341.468 149.052 C 341.166 149.540,339.816 149.500,338.399 148.962 C 334.634 147.530,330.347 147.796,328.571 149.571 C 324.899 153.244,328.298 159.381,333.917 159.221 C 335.592 159.174,337.073 159.749,337.388 160.569 C 338.527 163.538,340.817 161.798,343.428 155.981 C 344.914 152.671,345.988 148.778,345.815 147.330 C 345.444 144.229,341.805 141.279,337.250 140.387 C 334.449 139.838,334.000 140.028,334.000 141.764 M204.715 146.762 C 203.772 147.805,203.000 149.240,203.000 149.951 C 203.000 150.915,202.661 150.963,201.668 150.139 C 200.688 149.326,199.904 149.360,198.705 150.267 C 197.242 151.374,197.543 152.267,201.653 159.000 C 204.171 163.125,206.365 166.649,206.530 166.831 C 206.694 167.013,207.764 166.661,208.907 166.050 L 210.986 164.937 208.493 160.989 C 205.669 156.516,205.297 152.434,207.492 150.009 C 208.719 148.653,208.757 148.050,207.707 146.614 C 206.498 144.961,206.338 144.969,204.715 146.762 M348.661 156.078 C 344.049 162.763,343.279 166.000,346.300 166.000 C 347.049 166.000,348.287 164.831,349.052 163.403 C 350.488 160.720,355.534 156.000,356.966 156.000 C 357.413 156.000,358.788 156.817,360.021 157.816 L 362.264 159.633 358.513 165.283 C 354.903 170.719,354.414 174.010,357.219 173.991 C 357.923 173.986,360.188 171.363,362.250 168.161 C 365.843 162.584,366.813 158.763,365.235 156.400 C 364.116 154.724,360.396 153.000,357.899 153.000 C 356.671 153.000,355.963 152.704,356.325 152.342 C 357.008 151.658,355.228 148.976,354.128 149.032 C 353.782 149.049,351.322 152.220,348.661 156.078 M338.130 152.070 C 339.726 152.924,339.890 153.428,338.942 154.570 C 337.480 156.331,332.327 156.460,331.731 154.750 C 330.537 151.327,334.018 149.869,338.130 152.070 M188.321 156.613 C 184.384 158.555,181.617 163.980,182.504 168.020 C 183.411 172.147,188.322 176.000,192.677 176.000 C 198.455 176.000,205.868 167.315,201.515 165.644 C 200.612 165.297,199.575 165.940,198.866 167.287 C 197.347 170.172,196.067 170.966,192.905 170.985 C 185.796 171.027,185.066 161.701,192.006 159.498 C 194.165 158.813,194.801 154.985,192.750 155.023 C 192.063 155.035,190.069 155.751,188.321 156.613 M166.353 165.926 C 164.414 167.109,162.739 169.260,161.989 171.532 C 160.916 174.784,161.004 175.530,162.737 177.859 C 165.224 181.203,167.773 181.568,174.061 179.480 C 176.818 178.564,179.764 178.079,180.607 178.403 C 183.288 179.431,181.793 183.354,178.000 185.247 C 176.075 186.207,174.545 187.445,174.600 187.997 C 174.655 188.548,174.767 189.499,174.850 190.108 C 175.088 191.870,180.178 190.163,183.169 187.319 C 186.666 183.993,187.412 180.698,185.503 177.006 C 183.424 172.986,180.233 172.395,173.737 174.826 C 167.802 177.046,165.649 176.504,166.163 172.920 C 166.436 171.010,168.999 168.868,172.774 167.393 C 172.924 167.334,172.763 166.547,172.417 165.643 C 171.598 163.510,170.210 163.575,166.353 165.926 M370.212 166.193 C 366.801 167.110,363.011 171.899,363.004 175.300 C 362.993 180.243,369.940 187.004,373.590 185.604 C 375.821 184.748,375.243 183.343,372.130 182.054 C 370.551 181.400,368.762 179.772,368.153 178.436 C 364.952 171.411,374.978 166.284,378.797 172.994 C 380.829 176.565,383.000 176.917,383.000 173.674 C 383.000 168.908,375.793 164.692,370.212 166.193 M383.388 180.942 C 380.083 182.337,377.000 186.950,377.000 190.500 C 377.000 195.667,383.730 202.670,386.262 200.138 C 386.991 199.409,386.331 198.177,384.085 196.079 C 381.699 193.850,380.944 192.364,381.180 190.361 C 381.670 186.215,383.144 186.630,387.371 192.107 L 391.242 197.121 393.621 194.886 C 396.838 191.864,396.878 186.173,393.702 183.190 C 391.027 180.677,386.405 179.669,383.388 180.942 M391.595 186.506 C 392.499 187.875,392.609 188.986,391.942 190.006 C 391.120 191.261,390.568 191.052,388.482 188.694 C 387.117 187.151,386.000 185.432,386.000 184.875 C 386.000 183.159,390.192 184.381,391.595 186.506 M202.929 234.304 C 192.167 237.355,183.662 244.974,179.913 254.921 C 176.868 263.001,177.522 276.187,181.366 284.202 C 184.786 291.335,192.263 298.207,199.586 300.946 C 206.142 303.399,216.471 303.665,223.461 301.562 C 228.710 299.982,239.000 293.599,239.000 291.923 C 239.000 291.342,237.781 289.209,236.290 287.183 C 234.800 285.157,233.480 283.342,233.357 283.150 C 233.233 282.957,231.365 284.220,229.205 285.956 C 221.967 291.772,211.821 293.464,204.397 290.093 C 191.928 284.430,186.849 268.459,193.563 256.021 C 195.952 251.594,197.526 250.041,202.000 247.701 C 206.732 245.227,208.371 244.879,213.739 245.209 C 221.037 245.659,225.234 248.189,226.006 252.606 C 226.479 255.316,226.845 255.519,231.756 255.802 L 237.000 256.105 237.000 250.129 C 237.000 245.188,236.560 243.631,234.458 241.133 C 229.375 235.091,212.808 231.503,202.929 234.304 M262.753 234.042 C 253.509 236.325,247.000 243.925,247.000 252.436 C 247.000 261.129,251.972 266.675,265.344 272.900 C 274.923 277.359,277.681 279.514,278.559 283.225 C 279.546 287.394,274.552 292.000,269.045 292.000 C 264.089 292.000,258.410 289.766,254.956 286.457 L 252.412 284.021 249.206 288.192 C 247.443 290.486,246.000 292.709,246.000 293.131 C 246.000 294.361,252.172 298.725,257.028 300.928 C 262.947 303.612,273.886 303.701,279.500 301.110 C 289.433 296.526,293.604 285.332,289.087 275.384 C 286.706 270.141,282.856 267.249,270.838 261.677 C 260.748 256.999,258.369 254.651,259.431 250.420 C 260.303 246.944,264.392 244.674,269.637 244.753 C 274.803 244.831,278.000 247.088,278.000 250.655 C 278.000 252.831,278.397 253.000,283.500 253.000 L 289.000 253.000 289.000 248.077 C 289.000 239.688,283.123 234.749,271.821 233.640 C 268.895 233.352,264.814 233.534,262.753 234.042 M305.592 242.750 C 301.487 294.371,301.805 292.000,298.981 292.000 C 297.270 292.000,297.000 292.683,297.000 297.000 L 297.000 302.000 303.878 302.000 C 308.967 302.000,311.101 301.583,312.085 300.397 C 312.961 299.342,313.988 291.569,315.092 277.647 C 316.015 266.016,317.070 257.400,317.436 258.500 C 317.803 259.600,320.933 267.025,324.392 275.000 L 330.682 289.500 336.190 289.795 L 341.699 290.091 344.491 283.795 C 346.026 280.333,349.239 272.775,351.632 267.000 C 354.024 261.225,355.995 256.950,356.012 257.500 C 356.028 258.050,356.698 266.375,357.500 276.000 C 358.302 285.625,358.968 294.705,358.979 296.179 C 359.014 300.667,361.324 302.000,369.071 302.000 L 376.000 302.000 376.000 297.070 C 376.000 292.747,375.728 292.100,373.791 291.820 C 370.872 291.397,370.613 289.853,368.407 259.750 L 366.592 235.000 360.046 235.030 L 353.500 235.060 347.758 248.280 C 344.600 255.551,340.819 264.521,339.354 268.214 C 336.622 275.106,335.667 275.795,334.622 271.628 C 334.291 270.313,331.361 263.221,328.110 255.869 C 324.859 248.516,321.502 240.813,320.650 238.750 L 319.102 235.000 312.655 235.000 L 306.208 235.000 305.592 242.750 M330.500 336.595 C 387.392 341.190,433.525 355.322,453.750 374.351 C 459.863 380.102,460.199 381.993,456.908 392.085 C 451.957 407.261,441.371 422.000,435.421 422.000 C 433.950 422.000,427.966 420.203,422.123 418.007 C 398.228 409.026,379.238 404.240,349.000 399.579 C 320.825 395.235,303.197 393.999,269.589 394.010 C 202.474 394.031,162.248 400.043,132.759 414.458 C 124.108 418.687,123.526 418.833,121.077 417.378 C 112.935 412.543,99.000 386.976,99.000 376.873 C 99.000 373.524,105.722 367.698,117.671 360.693 C 137.870 348.851,172.469 340.356,216.500 336.427 C 243.376 334.029,299.765 334.112,330.500 336.595 M247.617 346.557 C 247.277 347.441,247.000 349.252,247.000 350.582 C 247.000 352.495,247.523 353.000,249.500 353.000 C 251.056 353.000,252.000 352.433,252.000 351.500 C 252.000 350.390,253.164 350.000,256.476 350.000 L 260.952 350.000 261.226 366.750 C 261.495 383.209,261.539 383.506,263.726 383.816 C 265.941 384.131,265.952 384.060,266.226 367.316 L 266.500 350.500 270.759 350.192 C 273.895 349.965,275.176 350.295,275.616 351.442 C 275.945 352.299,277.093 353.000,278.167 353.000 C 279.813 353.000,280.072 352.409,279.810 349.250 L 279.500 345.500 263.867 345.225 C 250.269 344.986,248.153 345.160,247.617 346.557 M218.250 346.737 C 213.962 347.037,213.000 347.440,213.000 348.936 C 213.000 349.943,213.850 350.989,214.888 351.260 C 216.605 351.709,216.843 353.266,217.512 368.432 L 218.248 385.109 220.874 384.804 C 223.492 384.501,223.499 384.475,223.147 376.750 L 222.794 369.000 226.823 369.000 C 230.675 369.000,230.997 369.251,234.098 374.672 C 238.212 381.862,240.367 384.000,243.500 384.000 C 246.586 384.000,246.982 380.596,244.077 379.041 C 243.019 378.475,240.755 375.568,239.047 372.581 L 235.940 367.151 238.470 364.621 C 240.445 362.646,241.000 361.080,241.000 357.480 C 241.000 347.139,237.323 345.403,218.250 346.737 M287.000 347.893 C 287.000 348.934,287.675 350.045,288.500 350.362 C 290.201 351.015,290.407 355.962,289.350 370.846 C 288.782 378.852,288.469 380.000,286.850 380.000 C 285.667 380.000,285.000 380.721,285.000 382.000 C 285.000 383.698,285.667 384.000,289.418 384.000 C 291.848 384.000,294.548 384.273,295.418 384.607 C 296.565 385.047,297.000 384.609,297.000 383.013 C 297.000 381.715,296.243 380.615,295.154 380.330 C 293.628 379.931,293.365 379.038,293.637 375.174 C 293.817 372.603,294.240 366.113,294.576 360.750 C 295.122 352.039,295.390 351.000,297.093 351.000 C 298.460 351.000,299.000 350.293,299.000 348.500 C 299.000 346.111,298.733 346.000,293.000 346.000 C 287.780 346.000,287.000 346.246,287.000 347.893 M306.000 348.883 C 306.000 350.098,306.639 351.000,307.500 351.000 C 309.337 351.000,309.380 353.179,307.890 370.980 C 306.969 381.976,307.012 384.393,308.140 385.107 C 310.778 386.779,312.000 386.035,312.009 382.750 C 312.013 380.962,312.300 377.151,312.644 374.280 L 313.272 369.059 319.232 369.682 C 323.700 370.149,325.403 369.966,326.031 368.950 C 327.249 366.978,326.266 366.000,323.066 366.000 C 321.517 366.000,318.844 365.719,317.125 365.375 C 314.147 364.779,314.000 364.525,314.000 359.957 C 314.000 352.775,314.548 352.000,319.628 352.000 C 323.367 352.000,324.217 352.383,325.182 354.500 C 326.713 357.860,329.623 357.754,330.280 354.313 C 331.281 349.078,330.801 348.878,313.750 347.425 C 306.315 346.792,306.000 346.851,306.000 348.883 M189.750 349.733 C 180.705 350.995,179.000 351.513,179.000 353.000 C 179.000 353.972,179.826 354.983,180.835 355.247 C 182.407 355.658,182.932 357.913,184.494 370.951 C 185.519 379.506,186.871 386.728,187.580 387.437 C 188.596 388.453,190.660 388.434,198.171 387.338 C 203.302 386.590,208.063 385.771,208.750 385.520 C 209.438 385.269,210.000 383.474,210.000 381.531 C 210.000 378.458,209.685 378.000,207.570 378.000 C 205.811 378.000,205.051 378.622,204.820 380.249 C 204.543 382.192,203.689 382.599,198.540 383.239 C 195.262 383.647,192.263 383.647,191.876 383.240 C 191.488 382.833,190.860 379.947,190.480 376.827 L 189.789 371.154 194.644 370.493 C 201.963 369.497,203.000 369.045,203.000 366.853 C 203.000 365.197,202.513 364.934,200.250 365.367 C 198.738 365.656,195.651 366.171,193.391 366.511 L 189.282 367.128 188.652 363.314 C 187.328 355.301,187.642 354.321,191.750 353.642 C 197.801 352.642,200.000 352.870,200.000 354.500 C 200.000 355.433,200.944 356.000,202.500 356.000 C 204.360 356.000,205.000 355.471,205.000 353.934 C 205.000 351.146,203.208 347.973,201.715 348.117 C 201.047 348.181,195.662 348.908,189.750 349.733 M104.101 351.552 C 106.326 352.703,106.959 353.608,106.551 355.052 C 106.248 356.123,105.715 358.012,105.367 359.250 C 105.019 360.488,102.094 363.900,98.867 366.834 C 93.390 371.813,93.000 372.463,93.000 376.615 C 93.000 381.901,95.907 390.969,100.304 399.399 C 102.054 402.755,103.639 405.837,103.826 406.250 C 104.013 406.663,94.198 407.000,82.014 407.000 L 59.862 407.000 65.633 398.750 C 68.806 394.212,73.568 387.613,76.214 384.085 C 80.357 378.559,80.849 377.426,79.762 375.911 C 79.068 374.944,74.563 368.991,69.750 362.682 C 64.938 356.373,61.000 350.939,61.000 350.606 C 61.000 350.273,70.022 350.000,81.050 350.000 C 97.214 350.000,101.681 350.301,104.101 351.552 M234.750 352.746 C 236.674 355.265,236.275 360.725,234.000 363.000 C 232.608 364.392,230.667 365.000,227.617 365.000 C 222.631 365.000,222.038 364.027,222.014 355.813 C 222.000 351.275,222.103 351.113,225.250 350.706 C 229.862 350.109,233.300 350.847,234.750 352.746 M337.000 351.869 C 337.000 353.097,337.636 354.000,338.500 354.000 C 340.369 354.000,340.368 355.420,338.492 370.462 C 337.671 377.041,337.000 382.779,337.000 383.212 C 337.000 383.645,336.152 384.000,335.117 384.000 C 334.081 384.000,333.012 384.847,332.741 385.881 C 332.329 387.460,332.976 387.862,336.764 388.381 C 343.974 389.369,345.000 389.197,345.000 387.000 C 345.000 385.889,344.333 385.000,343.500 385.000 C 341.607 385.000,341.607 381.837,343.500 368.000 C 344.290 362.225,344.951 356.938,344.968 356.250 C 344.986 355.563,345.900 355.000,347.000 355.000 C 348.333 355.000,349.000 354.333,349.000 353.000 C 349.000 351.596,348.330 350.997,346.750 350.989 C 345.512 350.983,342.813 350.699,340.750 350.358 C 337.396 349.804,337.000 349.963,337.000 351.869 M495.833 350.776 C 495.650 351.203,491.066 357.732,485.646 365.285 C 480.227 372.838,476.009 379.576,476.274 380.259 C 476.647 381.220,487.862 396.270,495.268 405.750 C 496.042 406.741,492.251 407.000,477.006 407.000 C 459.140 407.000,457.806 406.875,458.318 405.250 C 458.621 404.288,460.058 400.350,461.511 396.500 C 462.965 392.650,464.401 386.560,464.704 382.966 L 465.254 376.433 459.507 371.181 C 454.384 366.498,453.503 365.092,451.381 358.214 C 450.071 353.971,449.000 350.387,449.000 350.250 C 449.000 350.113,459.613 350.000,472.583 350.000 C 485.554 350.000,496.017 350.349,495.833 350.776 M356.245 353.805 C 355.931 354.621,356.423 355.836,357.338 356.505 C 358.884 357.635,358.861 358.624,357.011 370.610 C 355.916 377.700,355.016 385.122,355.011 387.104 L 355.000 390.707 365.606 392.448 C 371.439 393.405,376.584 393.808,377.038 393.344 C 377.492 392.880,378.007 391.166,378.182 389.536 C 378.424 387.276,378.048 386.479,376.597 386.183 C 375.551 385.969,374.303 386.493,373.825 387.348 C 373.141 388.571,371.847 388.776,367.728 388.313 C 360.719 387.525,359.735 386.607,360.514 381.579 C 361.697 373.943,361.340 374.237,368.108 375.327 C 373.032 376.120,374.362 376.039,375.081 374.903 C 376.586 372.526,376.159 372.144,371.250 371.477 C 362.461 370.283,362.669 370.476,363.407 364.194 C 363.768 361.119,364.246 358.421,364.468 358.199 C 364.690 357.976,367.179 358.112,370.000 358.500 C 374.154 359.071,375.301 359.660,376.039 361.603 C 377.379 365.127,380.662 364.759,381.210 361.023 C 381.450 359.386,381.318 357.514,380.915 356.863 C 380.513 356.212,374.925 354.923,368.499 354.000 C 358.219 352.523,356.746 352.499,356.245 353.805 M151.500 356.400 C 138.332 362.204,136.120 379.874,147.330 389.716 C 155.025 396.473,165.726 396.142,173.446 388.908 C 177.265 385.329,177.402 385.009,175.801 383.392 C 174.198 381.770,173.885 381.871,170.203 385.197 C 164.838 390.045,160.183 390.804,154.176 387.812 C 139.874 380.688,144.069 359.667,159.794 359.667 C 163.221 359.667,164.735 360.190,166.066 361.833 C 168.455 364.784,171.000 364.649,171.000 361.573 C 171.000 357.588,166.678 354.993,160.115 355.039 C 157.027 355.061,153.150 355.673,151.500 356.400 M389.678 357.656 C 388.411 358.922,388.993 362.000,390.500 362.000 C 392.448 362.000,392.428 362.295,389.520 377.000 C 388.160 383.875,387.036 390.925,387.023 392.667 C 387.001 395.667,387.266 395.891,392.049 396.917 C 399.177 398.446,407.595 398.261,410.998 396.501 C 416.599 393.605,421.014 385.193,420.972 377.500 C 420.946 372.580,417.515 366.364,413.329 363.651 C 411.223 362.287,405.900 360.419,401.500 359.500 C 397.100 358.581,392.792 357.637,391.928 357.403 C 391.063 357.169,390.050 357.283,389.678 357.656 M409.500 366.842 C 418.025 371.747,417.558 386.522,408.701 392.107 C 406.125 393.732,404.354 394.033,399.634 393.648 C 396.408 393.384,393.368 392.768,392.878 392.278 C 392.161 391.561,395.802 369.507,397.489 364.341 C 397.971 362.865,405.206 364.371,409.500 366.842 M330.736 402.841 C 346.192 404.914,374.117 409.783,374.871 410.538 C 376.417 412.084,352.603 425.804,339.329 431.015 C 316.914 439.814,295.307 443.553,272.000 442.666 C 254.898 442.016,243.578 440.011,226.158 434.549 C 209.567 429.348,191.883 420.464,179.847 411.285 C 173.850 406.712,173.632 406.831,193.293 403.954 C 214.892 400.794,229.769 400.160,274.500 400.493 C 308.927 400.749,317.943 401.126,330.736 402.841 M175.127 415.034 C 196.688 431.021,221.561 441.817,248.000 446.666 C 261.738 449.185,293.723 449.170,308.000 446.638 C 330.173 442.705,354.834 432.659,373.490 419.960 L 384.164 412.694 389.332 413.883 C 392.174 414.537,397.565 415.983,401.312 417.097 C 407.264 418.866,408.084 419.398,407.812 421.311 C 407.509 423.438,407.184 423.490,396.387 423.147 L 385.275 422.794 382.998 432.147 C 379.624 446.004,380.843 445.126,368.789 442.383 C 363.130 441.096,358.227 440.033,357.893 440.021 C 357.559 440.010,355.365 444.387,353.018 449.750 C 350.670 455.113,348.595 459.674,348.405 459.886 C 348.216 460.099,343.441 458.356,337.794 456.012 L 327.528 451.752 325.770 454.126 C 324.803 455.432,321.850 459.512,319.207 463.193 L 314.403 469.885 304.984 463.937 L 295.565 457.989 289.532 463.783 C 278.314 474.558,280.196 474.314,271.429 466.127 C 267.232 462.207,263.350 459.000,262.803 459.000 C 262.257 459.000,258.216 461.475,253.825 464.500 C 249.433 467.525,245.314 469.987,244.670 469.972 C 244.027 469.957,241.025 466.545,238.000 462.391 C 234.975 458.237,232.050 454.463,231.499 454.004 C 230.927 453.526,227.074 454.783,222.499 456.939 C 209.637 463.002,210.788 463.194,206.564 454.278 C 204.538 450.000,202.250 445.530,201.479 444.345 L 200.078 442.190 190.789 444.575 C 185.680 445.887,180.801 446.969,179.946 446.980 C 178.829 446.994,177.563 444.119,175.442 436.750 L 172.491 426.500 160.996 426.500 L 149.500 426.500 148.982 420.680 C 148.676 417.240,148.888 414.508,149.498 414.001 C 150.345 413.299,163.587 409.416,166.244 409.091 C 166.654 409.041,170.651 411.715,175.127 415.034 " stroke="none" fill="black" fill-rule="evenodd"/></svg>